<svg width="133" height="85" viewBox="0 0 133 85" fill="none" xmlns="http://www.w3.org/2000/svg">
<path d="M19.5505 27.768L16.5745 37.368H35.4865L32.5105 27.768C31.3585 24.248 30.2705 20.76 29.2465 17.304C28.2225 13.784 27.1985 10.2 26.1745 6.552H25.7905C24.8305 10.2 23.8385 13.784 22.8145 17.304C21.7905 20.76 20.7025 24.248 19.5505 27.768ZM0.3505 63L21.6625 0.0239983H30.6865L51.9985 63H43.4545L37.5025 43.8H14.5585L8.5105 63H0.3505ZM60.1533 63V16.344H66.6813L67.3533 24.792H67.6413C69.2413 21.848 71.1933 19.512 73.4973 17.784C75.8013 16.056 78.2653 15.192 80.8893 15.192C82.7453 15.192 84.4093 15.512 85.8813 16.152L84.3453 23.064C83.5773 22.808 82.8733 22.616 82.2333 22.488C81.5933 22.36 80.7933 22.296 79.8333 22.296C77.8493 22.296 75.7693 23.096 73.5933 24.696C71.4813 26.296 69.6253 29.08 68.0253 33.048V63H60.1533Z" fill="#E30A17"/>
<path d="M109.179 84.504C103.483 84.504 98.8425 83.416 95.2585 81.24C91.6745 79.064 89.8825 75.96 89.8825 71.928C89.8825 69.944 90.4905 68.024 91.7065 66.168C92.9225 64.376 94.5865 62.776 96.6985 61.368V60.984C95.5465 60.28 94.5545 59.288 93.7225 58.008C92.9545 56.728 92.5705 55.192 92.5705 53.4C92.5705 51.416 93.1145 49.688 94.2025 48.216C95.2905 46.744 96.4425 45.592 97.6585 44.76V44.376C96.1225 43.096 94.7145 41.368 93.4345 39.192C92.2185 37.016 91.6105 34.552 91.6105 31.8C91.6105 28.408 92.4105 25.464 94.0105 22.968C95.6105 20.472 97.7545 18.552 100.443 17.208C103.131 15.864 106.043 15.192 109.179 15.192C110.459 15.192 111.675 15.32 112.827 15.576C113.979 15.768 114.971 16.024 115.803 16.344H132.027V22.392H122.427C123.515 23.416 124.411 24.792 125.115 26.52C125.883 28.184 126.267 30.008 126.267 31.992C126.267 35.32 125.499 38.2 123.963 40.632C122.427 43.064 120.379 44.952 117.819 46.296C115.259 47.576 112.379 48.216 109.179 48.216C106.683 48.216 104.347 47.672 102.171 46.584C101.339 47.288 100.635 48.088 100.059 48.984C99.4825 49.816 99.1945 50.872 99.1945 52.152C99.1945 53.624 99.7705 54.84 100.923 55.8C102.139 56.76 104.315 57.24 107.451 57.24H116.475C121.915 57.24 125.979 58.136 128.667 59.928C131.419 61.656 132.795 64.472 132.795 68.376C132.795 71.256 131.835 73.912 129.915 76.344C127.995 78.776 125.275 80.728 121.755 82.2C118.235 83.736 114.043 84.504 109.179 84.504ZM109.179 42.936C111.867 42.936 114.171 41.944 116.091 39.96C118.075 37.912 119.067 35.192 119.067 31.8C119.067 28.408 118.107 25.752 116.187 23.832C114.267 21.912 111.931 20.952 109.179 20.952C106.427 20.952 104.091 21.912 102.171 23.832C100.251 25.752 99.2905 28.408 99.2905 31.8C99.2905 35.192 100.251 37.912 102.171 39.96C104.155 41.944 106.491 42.936 109.179 42.936ZM110.331 79.032C114.811 79.032 118.395 78.04 121.083 76.056C123.771 74.136 125.115 71.96 125.115 69.528C125.115 67.352 124.283 65.848 122.619 65.016C121.019 64.184 118.715 63.768 115.707 63.768H107.643C106.747 63.768 105.755 63.704 104.667 63.576C103.643 63.448 102.619 63.256 101.595 63C99.9305 64.216 98.7145 65.496 97.9465 66.84C97.1785 68.184 96.7945 69.528 96.7945 70.872C96.7945 73.368 97.9785 75.352 100.347 76.824C102.779 78.296 106.107 79.032 110.331 79.032Z" fill="#363636"/>
</svg>
