<svg width="354" height="226" viewBox="0 0 354 226" fill="none" xmlns="http://www.w3.org/2000/svg">
<path d="M51.968 74.048L44.032 99.648H94.464L86.528 74.048C83.456 64.6613 80.5547 55.36 77.824 46.144C75.0933 36.7573 72.3627 27.2 69.632 17.472H68.608C66.048 27.2 63.4027 36.7573 60.672 46.144C57.9413 55.36 55.04 64.6613 51.968 74.048ZM0.768 168L57.6 0.0639954H81.664L138.496 168H115.712L99.84 116.8H38.656L22.528 168H0.768ZM160.242 168V43.584H177.65L179.442 66.112H180.21C184.477 58.2613 189.682 52.032 195.826 47.424C201.97 42.816 208.541 40.512 215.538 40.512C220.487 40.512 224.925 41.3653 228.85 43.072L224.754 61.504C222.706 60.8213 220.829 60.3093 219.122 59.968C217.415 59.6267 215.282 59.456 212.722 59.456C207.431 59.456 201.885 61.5893 196.082 65.856C190.45 70.1227 185.501 77.5467 181.234 88.128V168H160.242Z" fill="#E30A17"/>
<path d="M290.976 225.344C275.787 225.344 263.413 222.443 253.856 216.64C244.299 210.837 239.52 202.56 239.52 191.808C239.52 186.517 241.141 181.397 244.384 176.448C247.627 171.669 252.064 167.403 257.696 163.648V162.624C254.624 160.747 251.979 158.101 249.76 154.688C247.712 151.275 246.688 147.179 246.688 142.4C246.688 137.109 248.139 132.501 251.04 128.576C253.941 124.651 257.013 121.579 260.256 119.36V118.336C256.16 114.923 252.405 110.315 248.992 104.512C245.749 98.7093 244.128 92.1387 244.128 84.8C244.128 75.7547 246.261 67.904 250.528 61.248C254.795 54.592 260.512 49.472 267.68 45.888C274.848 42.304 282.613 40.512 290.976 40.512C294.389 40.512 297.632 40.8533 300.704 41.536C303.776 42.048 306.421 42.7307 308.64 43.584H351.904V59.712H326.304C329.205 62.4427 331.595 66.112 333.472 70.72C335.52 75.1573 336.544 80.0213 336.544 85.312C336.544 94.1867 334.496 101.867 330.4 108.352C326.304 114.837 320.843 119.872 314.016 123.456C307.189 126.869 299.509 128.576 290.976 128.576C284.32 128.576 278.091 127.125 272.288 124.224C270.069 126.101 268.192 128.235 266.656 130.624C265.12 132.843 264.352 135.659 264.352 139.072C264.352 142.997 265.888 146.24 268.96 148.8C272.203 151.36 278.005 152.64 286.368 152.64H310.432C324.939 152.64 335.776 155.029 342.944 159.808C350.283 164.416 353.952 171.925 353.952 182.336C353.952 190.016 351.392 197.099 346.272 203.584C341.152 210.069 333.899 215.275 324.512 219.2C315.125 223.296 303.947 225.344 290.976 225.344ZM290.976 114.496C298.144 114.496 304.288 111.851 309.408 106.56C314.699 101.099 317.344 93.8453 317.344 84.8C317.344 75.7547 314.784 68.672 309.664 63.552C304.544 58.432 298.315 55.872 290.976 55.872C283.637 55.872 277.408 58.432 272.288 63.552C267.168 68.672 264.608 75.7547 264.608 84.8C264.608 93.8453 267.168 101.099 272.288 106.56C277.579 111.851 283.808 114.496 290.976 114.496ZM294.048 210.752C305.995 210.752 315.552 208.107 322.72 202.816C329.888 197.696 333.472 191.893 333.472 185.408C333.472 179.605 331.253 175.595 326.816 173.376C322.549 171.157 316.405 170.048 308.384 170.048H286.88C284.491 170.048 281.845 169.877 278.944 169.536C276.213 169.195 273.483 168.683 270.752 168C266.315 171.243 263.072 174.656 261.024 178.24C258.976 181.824 257.952 185.408 257.952 188.992C257.952 195.648 261.109 200.939 267.424 204.864C273.909 208.789 282.784 210.752 294.048 210.752Z" fill="white"/>
<path d="M51.968 74.048L47.216 72.4928L47.2038 72.5301L47.1922 72.5675L51.968 74.048ZM44.032 99.648L39.2562 98.1675L37.2473 104.648H44.032V99.648ZM94.464 99.648V104.648H101.249L99.2398 98.1675L94.464 99.648ZM86.528 74.048L91.3038 72.5675L91.2922 72.5301L91.28 72.4928L86.528 74.048ZM77.824 46.144L73.023 47.5406L73.0265 47.5526L73.03 47.5644L77.824 46.144ZM69.632 17.472L74.4459 16.1207L73.4217 12.472H69.632V17.472ZM68.608 17.472V12.472H64.7536L63.7726 16.1995L68.608 17.472ZM60.672 46.144L65.466 47.5644L65.4695 47.5526L65.473 47.5406L60.672 46.144ZM0.768 168L-3.96815 166.397L-6.20263 173H0.768V168ZM57.6 0.0639954V-4.936H54.0135L52.8639 -1.53879L57.6 0.0639954ZM81.664 0.0639954L86.4001 -1.53879L85.2505 -4.936H81.664V0.0639954ZM138.496 168V173H145.467L143.232 166.397L138.496 168ZM115.712 168L110.936 169.48L112.027 173H115.712V168ZM99.84 116.8L104.616 115.32L103.525 111.8H99.84V116.8ZM38.656 116.8V111.8H34.9888L33.887 115.298L38.656 116.8ZM22.528 168V173H26.1952L27.297 169.502L22.528 168ZM47.1922 72.5675L39.2562 98.1675L48.8078 101.128L56.7438 75.5285L47.1922 72.5675ZM44.032 104.648H94.464V94.648H44.032V104.648ZM99.2398 98.1675L91.3038 72.5675L81.7522 75.5285L89.6882 101.128L99.2398 98.1675ZM91.28 72.4928C88.2222 63.1496 85.3349 53.8932 82.618 44.7236L73.03 47.5644C75.7744 56.8268 78.6898 66.173 81.776 75.6032L91.28 72.4928ZM82.625 44.7473C79.8989 35.3763 77.1725 25.8341 74.4459 16.1207L64.8181 18.8233C67.5528 28.5659 70.2878 38.1384 73.023 47.5406L82.625 44.7473ZM69.632 12.472H68.608V22.472H69.632V12.472ZM63.7726 16.1995C61.2232 25.8872 58.5894 35.4031 55.871 44.7473L65.473 47.5406C68.216 38.1116 70.8728 28.5128 73.4434 18.7445L63.7726 16.1995ZM55.878 44.7236C53.1611 53.8932 50.2738 63.1496 47.216 72.4928L56.72 75.6032C59.8062 66.173 62.7216 56.8268 65.466 47.5644L55.878 44.7236ZM5.50415 169.603L62.3361 1.66678L52.8639 -1.53879L-3.96815 166.397L5.50415 169.603ZM57.6 5.064H81.664V-4.936H57.6V5.064ZM76.9279 1.66678L133.76 169.603L143.232 166.397L86.4001 -1.53879L76.9279 1.66678ZM138.496 163H115.712V173H138.496V163ZM120.488 166.52L104.616 115.32L95.0642 118.28L110.936 169.48L120.488 166.52ZM99.84 111.8H38.656V121.8H99.84V111.8ZM33.887 115.298L17.759 166.498L27.297 169.502L43.425 118.302L33.887 115.298ZM22.528 163H0.768V173H22.528V163ZM160.242 168H155.242V173H160.242V168ZM160.242 43.584V38.584H155.242V43.584H160.242ZM177.65 43.584L182.634 43.1875L182.268 38.584H177.65V43.584ZM179.442 66.112L174.458 66.5085L174.824 71.112H179.442V66.112ZM180.21 66.112V71.112H183.183L184.603 68.4996L180.21 66.112ZM195.826 47.424L198.826 51.424L198.826 51.424L195.826 47.424ZM228.85 43.072L233.731 44.1566L234.626 40.1309L230.844 38.4866L228.85 43.072ZM224.754 61.504L223.173 66.2474L228.432 68.0006L229.635 62.5886L224.754 61.504ZM219.122 59.968L218.141 64.8709L218.141 64.8709L219.122 59.968ZM196.082 65.856L193.12 61.8277L193.091 61.8489L193.063 61.8705L196.082 65.856ZM181.234 88.128L176.597 86.2582L176.234 87.1579V88.128H181.234ZM181.234 168V173H186.234V168H181.234ZM165.242 168V43.584H155.242V168H165.242ZM160.242 48.584H177.65V38.584H160.242V48.584ZM172.666 43.9805L174.458 66.5085L184.426 65.7155L182.634 43.1875L172.666 43.9805ZM179.442 71.112H180.21V61.112H179.442V71.112ZM184.603 68.4996C188.582 61.1777 193.343 55.536 198.826 51.424L192.826 43.424C186.021 48.528 180.371 55.3449 175.817 63.7244L184.603 68.4996ZM198.826 51.424C204.194 47.3982 209.729 45.512 215.538 45.512V35.512C207.352 35.512 199.746 38.2338 192.826 43.424L198.826 51.424ZM215.538 45.512C219.908 45.512 223.651 46.2636 226.856 47.6573L230.844 38.4866C226.199 36.467 221.067 35.512 215.538 35.512V45.512ZM223.969 41.9873L219.873 60.4193L229.635 62.5886L233.731 44.1566L223.969 41.9873ZM226.335 56.7606C224.135 56.0272 222.054 55.4554 220.103 55.0651L218.141 64.8709C219.603 65.1633 221.277 65.6154 223.173 66.2474L226.335 56.7606ZM220.103 55.0651C217.961 54.6368 215.473 54.456 212.722 54.456V64.456C215.091 64.456 216.87 64.6166 218.141 64.8709L220.103 55.0651ZM212.722 54.456C206.041 54.456 199.476 57.1541 193.12 61.8277L199.044 69.8842C204.293 66.0245 208.822 64.456 212.722 64.456V54.456ZM193.063 61.8705C186.395 66.9221 181.014 75.303 176.597 86.2582L185.871 89.9978C189.987 79.7904 194.505 73.3232 199.101 69.8415L193.063 61.8705ZM176.234 88.128V168H186.234V88.128H176.234ZM181.234 163H160.242V173H181.234V163ZM253.856 216.64L251.261 220.914L251.261 220.914L253.856 216.64ZM244.384 176.448L240.247 173.64L240.224 173.674L240.202 173.708L244.384 176.448ZM257.696 163.648L260.47 167.808L262.696 166.324V163.648H257.696ZM257.696 162.624H262.696V159.82L260.303 158.358L257.696 162.624ZM249.76 154.688L245.473 157.26L245.519 157.338L245.568 157.413L249.76 154.688ZM251.04 128.576L247.019 125.604L247.019 125.604L251.04 128.576ZM260.256 119.36L263.079 123.487L265.256 121.997V119.36H260.256ZM260.256 118.336H265.256V115.994L263.457 114.495L260.256 118.336ZM248.992 104.512L244.627 106.951L244.654 106.999L244.682 107.047L248.992 104.512ZM250.528 61.248L254.737 63.9463L254.737 63.9463L250.528 61.248ZM267.68 45.888L265.444 41.4159L265.444 41.4159L267.68 45.888ZM300.704 41.536L299.619 46.4169L299.75 46.446L299.882 46.468L300.704 41.536ZM308.64 43.584L306.845 48.2507L307.712 48.584H308.64V43.584ZM351.904 43.584H356.904V38.584H351.904V43.584ZM351.904 59.712V64.712H356.904V59.712H351.904ZM326.304 59.712V54.712H313.696L322.877 63.353L326.304 59.712ZM333.472 70.72L328.842 72.6065L328.885 72.7119L328.932 72.8153L333.472 70.72ZM330.4 108.352L326.173 105.682L326.173 105.682L330.4 108.352ZM314.016 123.456L316.252 127.928L316.296 127.906L316.34 127.883L314.016 123.456ZM272.288 124.224L274.524 119.752L271.575 118.277L269.058 120.407L272.288 124.224ZM266.656 130.624L270.767 133.47L270.816 133.4L270.862 133.328L266.656 130.624ZM268.96 148.8L265.759 152.641L265.81 152.683L265.862 152.724L268.96 148.8ZM342.944 159.808L340.171 163.968L340.227 164.006L340.285 164.042L342.944 159.808ZM346.272 203.584L350.196 206.682L350.196 206.682L346.272 203.584ZM324.512 219.2L322.583 214.587L322.548 214.602L322.512 214.617L324.512 219.2ZM309.408 106.56L305.817 103.081L305.815 103.083L309.408 106.56ZM272.288 106.56L268.64 109.98L268.695 110.039L268.752 110.096L272.288 106.56ZM322.72 202.816L319.814 198.747L319.782 198.77L319.751 198.793L322.72 202.816ZM326.816 173.376L324.509 177.812L324.544 177.83L324.58 177.848L326.816 173.376ZM278.944 169.536L278.324 174.497L278.342 174.5L278.36 174.502L278.944 169.536ZM270.752 168L271.965 163.149L269.693 162.581L267.802 163.963L270.752 168ZM261.024 178.24L265.365 180.721L265.365 180.721L261.024 178.24ZM267.424 204.864L264.784 209.11L264.81 209.126L264.835 209.142L267.424 204.864ZM290.976 220.344C276.385 220.344 264.994 217.553 256.451 212.366L251.261 220.914C261.833 227.333 275.188 230.344 290.976 230.344V220.344ZM256.451 212.366C248.314 207.426 244.52 200.73 244.52 191.808H234.52C234.52 204.39 240.283 214.249 251.261 220.914L256.451 212.366ZM244.52 191.808C244.52 187.604 245.792 183.423 248.566 179.188L240.202 173.708C236.491 179.372 234.52 185.431 234.52 191.808H244.52ZM248.521 179.256C251.344 175.095 255.284 171.265 260.47 167.808L254.922 159.488C248.844 163.54 243.909 168.243 240.247 173.64L248.521 179.256ZM262.696 163.648V162.624H252.696V163.648H262.696ZM260.303 158.358C257.947 156.917 255.818 154.833 253.952 151.963L245.568 157.413C248.14 161.37 251.301 164.576 255.089 166.89L260.303 158.358ZM254.047 152.116C252.551 149.622 251.688 146.455 251.688 142.4H241.688C241.688 147.902 242.873 152.927 245.473 157.26L254.047 152.116ZM251.688 142.4C251.688 138.084 252.85 134.54 255.061 131.548L247.019 125.604C243.428 130.463 241.688 136.134 241.688 142.4H251.688ZM255.061 131.548C257.708 127.967 260.394 125.324 263.079 123.487L257.433 115.233C253.633 117.833 250.175 121.334 247.019 125.604L255.061 131.548ZM265.256 119.36V118.336H255.256V119.36H265.256ZM263.457 114.495C259.902 111.532 256.497 107.408 253.302 101.977L244.682 107.047C248.314 113.221 252.418 118.313 257.055 122.177L263.457 114.495ZM253.357 102.073C250.573 97.0912 249.128 91.3756 249.128 84.8H239.128C239.128 92.9017 240.926 100.327 244.627 106.951L253.357 102.073ZM249.128 84.8C249.128 76.5699 251.058 69.6858 254.737 63.9463L246.319 58.5497C241.464 66.1222 239.128 74.9395 239.128 84.8H249.128ZM254.737 63.9463C258.511 58.0593 263.542 53.5472 269.916 50.3601L265.444 41.4159C257.482 45.3968 251.078 51.1246 246.319 58.5497L254.737 63.9463ZM269.916 50.3601C276.359 47.1385 283.355 45.512 290.976 45.512V35.512C281.872 35.512 273.337 37.4695 265.444 41.4159L269.916 50.3601ZM290.976 45.512C294.055 45.512 296.932 45.8198 299.619 46.4169L301.789 36.6551C298.332 35.8869 294.724 35.512 290.976 35.512V45.512ZM299.882 46.468C302.718 46.9406 305.02 47.5489 306.845 48.2507L310.435 38.9173C307.822 37.9124 304.834 37.1554 301.526 36.604L299.882 46.468ZM308.64 48.584H351.904V38.584H308.64V48.584ZM346.904 43.584V59.712H356.904V43.584H346.904ZM351.904 54.712H326.304V64.712H351.904V54.712ZM322.877 63.353C325.143 65.4855 327.169 68.5023 328.842 72.6065L338.102 68.8335C336.02 63.7217 333.268 59.3998 329.731 56.071L322.877 63.353ZM328.932 72.8153C330.653 76.5428 331.544 80.6842 331.544 85.312H341.544C341.544 79.3584 340.387 73.7718 338.012 68.6247L328.932 72.8153ZM331.544 85.312C331.544 93.393 329.689 100.115 326.173 105.682L334.627 111.022C339.303 103.618 341.544 94.9803 341.544 85.312H331.544ZM326.173 105.682C322.548 111.421 317.745 115.851 311.692 119.029L316.34 127.883C323.94 123.893 330.06 118.254 334.627 111.022L326.173 105.682ZM311.78 118.984C305.726 122.011 298.826 123.576 290.976 123.576V133.576C300.193 133.576 308.653 131.728 316.252 127.928L311.78 118.984ZM290.976 123.576C285.075 123.576 279.614 122.297 274.524 119.752L270.052 128.696C276.567 131.954 283.565 133.576 290.976 133.576V123.576ZM269.058 120.407C266.47 122.597 264.261 125.104 262.45 127.92L270.862 133.328C272.123 131.366 273.669 129.605 275.518 128.041L269.058 120.407ZM262.545 127.778C260.293 131.03 259.352 134.912 259.352 139.072H269.352C269.352 136.406 269.947 134.655 270.767 133.47L262.545 127.778ZM259.352 139.072C259.352 144.513 261.572 149.152 265.759 152.641L272.161 144.959C270.204 143.328 269.352 141.482 269.352 139.072H259.352ZM265.862 152.724C270.525 156.406 277.844 157.64 286.368 157.64V147.64C278.167 147.64 273.881 146.314 272.058 144.876L265.862 152.724ZM286.368 157.64H310.432V147.64H286.368V157.64ZM310.432 157.64C324.556 157.64 334.213 159.997 340.171 163.968L345.718 155.648C337.339 150.062 325.322 147.64 310.432 147.64V157.64ZM340.285 164.042C345.856 167.54 348.952 173.243 348.952 182.336H358.952C358.952 170.608 354.709 161.292 345.603 155.574L340.285 164.042ZM348.952 182.336C348.952 188.804 346.827 194.811 342.348 200.486L350.196 206.682C355.957 199.386 358.952 191.228 358.952 182.336H348.952ZM342.348 200.486C337.862 206.168 331.366 210.914 322.583 214.587L326.441 223.813C336.431 219.635 344.442 213.971 350.196 206.682L342.348 200.486ZM322.512 214.617C313.9 218.375 303.435 220.344 290.976 220.344V230.344C304.458 230.344 316.35 228.217 326.512 223.783L322.512 214.617ZM290.976 119.496C299.539 119.496 306.968 116.271 313.001 110.037L305.815 103.083C301.608 107.43 296.749 109.496 290.976 109.496V119.496ZM312.999 110.039C319.361 103.472 322.344 94.881 322.344 84.8H312.344C312.344 92.8097 310.036 98.7256 305.817 103.081L312.999 110.039ZM322.344 84.8C322.344 74.7777 319.478 66.2951 313.2 60.0165L306.128 67.0875C310.09 71.0489 312.344 76.7316 312.344 84.8H322.344ZM313.2 60.0165C307.128 53.9446 299.621 50.872 290.976 50.872V60.872C297.009 60.872 301.96 62.9194 306.128 67.0875L313.2 60.0165ZM290.976 50.872C282.331 50.872 274.824 53.9446 268.752 60.0165L275.824 67.0875C279.992 62.9194 284.943 60.872 290.976 60.872V50.872ZM268.752 60.0165C262.474 66.2951 259.608 74.7777 259.608 84.8H269.608C269.608 76.7316 271.862 71.0489 275.824 67.0875L268.752 60.0165ZM259.608 84.8C259.608 94.8358 262.477 103.406 268.64 109.98L275.936 103.14C271.859 98.7914 269.608 92.8548 269.608 84.8H259.608ZM268.752 110.096C274.935 116.278 282.419 119.496 290.976 119.496V109.496C285.197 109.496 280.222 107.423 275.824 103.024L268.752 110.096ZM294.048 215.752C306.703 215.752 317.411 212.949 325.689 206.839L319.751 198.793C313.693 203.264 305.286 205.752 294.048 205.752V215.752ZM325.626 206.885C333.597 201.192 338.472 194.048 338.472 185.408H328.472C328.472 189.739 326.179 194.2 319.814 198.747L325.626 206.885ZM338.472 185.408C338.472 181.881 337.797 178.546 336.183 175.628C334.544 172.664 332.097 170.426 329.052 168.904L324.58 177.848C325.973 178.545 326.853 179.421 327.433 180.468C328.037 181.561 328.472 183.133 328.472 185.408H338.472ZM329.123 168.94C323.818 166.182 316.737 165.048 308.384 165.048V175.048C316.074 175.048 321.281 176.133 324.509 177.812L329.123 168.94ZM308.384 165.048H286.88V175.048H308.384V165.048ZM286.88 165.048C284.723 165.048 282.277 164.894 279.528 164.57L278.36 174.502C281.414 174.861 284.258 175.048 286.88 175.048V165.048ZM279.564 164.575C277.038 164.259 274.505 163.784 271.965 163.149L269.539 172.851C272.461 173.581 275.389 174.131 278.324 174.497L279.564 164.575ZM267.802 163.963C262.975 167.49 259.175 171.398 256.683 175.759L265.365 180.721C266.969 177.914 269.654 174.995 273.702 172.037L267.802 163.963ZM256.683 175.759C254.269 179.983 252.952 184.413 252.952 188.992H262.952C262.952 186.403 263.683 183.665 265.365 180.721L256.683 175.759ZM252.952 188.992C252.952 197.604 257.206 204.4 264.784 209.11L270.064 200.618C265.012 197.478 262.952 193.692 262.952 188.992H252.952ZM264.835 209.142C272.392 213.716 282.285 215.752 294.048 215.752V205.752C283.283 205.752 275.426 203.863 270.013 200.587L264.835 209.142Z" fill="#363636"/>
</svg>
