<svg width="392" height="392" viewBox="0 0 392 392" fill="none" xmlns="http://www.w3.org/2000/svg">
<rect width="392" height="392" rx="60" fill="#363636"/>
<path d="M69.968 193.048L62.032 218.648H112.464L104.528 193.048C101.456 183.661 98.5547 174.36 95.824 165.144C93.0933 155.757 90.3627 146.2 87.632 136.472H86.608C84.048 146.2 81.4027 155.757 78.672 165.144C75.9413 174.36 73.04 183.661 69.968 193.048ZM18.768 287L75.6 119.064H99.664L156.496 287H133.712L117.84 235.8H56.656L40.528 287H18.768ZM178.242 287V162.584H195.65L197.442 185.112H198.21C202.477 177.261 207.682 171.032 213.826 166.424C219.97 161.816 226.541 159.512 233.538 159.512C238.487 159.512 242.925 160.365 246.85 162.072L242.754 180.504C240.706 179.821 238.829 179.309 237.122 178.968C235.415 178.627 233.282 178.456 230.722 178.456C225.431 178.456 219.885 180.589 214.082 184.856C208.45 189.123 203.501 196.547 199.234 207.128V287H178.242Z" fill="#E30A17"/>
<path d="M308.976 344.344C293.787 344.344 281.413 341.443 271.856 335.64C262.299 329.837 257.52 321.56 257.52 310.808C257.52 305.517 259.141 300.397 262.384 295.448C265.627 290.669 270.064 286.403 275.696 282.648V281.624C272.624 279.747 269.979 277.101 267.76 273.688C265.712 270.275 264.688 266.179 264.688 261.4C264.688 256.109 266.139 251.501 269.04 247.576C271.941 243.651 275.013 240.579 278.256 238.36V237.336C274.16 233.923 270.405 229.315 266.992 223.512C263.749 217.709 262.128 211.139 262.128 203.8C262.128 194.755 264.261 186.904 268.528 180.248C272.795 173.592 278.512 168.472 285.68 164.888C292.848 161.304 300.613 159.512 308.976 159.512C312.389 159.512 315.632 159.853 318.704 160.536C321.776 161.048 324.421 161.731 326.64 162.584H369.904V178.712H344.304C347.205 181.443 349.595 185.112 351.472 189.72C353.52 194.157 354.544 199.021 354.544 204.312C354.544 213.187 352.496 220.867 348.4 227.352C344.304 233.837 338.843 238.872 332.016 242.456C325.189 245.869 317.509 247.576 308.976 247.576C302.32 247.576 296.091 246.125 290.288 243.224C288.069 245.101 286.192 247.235 284.656 249.624C283.12 251.843 282.352 254.659 282.352 258.072C282.352 261.997 283.888 265.24 286.96 267.8C290.203 270.36 296.005 271.64 304.368 271.64H328.432C342.939 271.64 353.776 274.029 360.944 278.808C368.283 283.416 371.952 290.925 371.952 301.336C371.952 309.016 369.392 316.099 364.272 322.584C359.152 329.069 351.899 334.275 342.512 338.2C333.125 342.296 321.947 344.344 308.976 344.344ZM308.976 233.496C316.144 233.496 322.288 230.851 327.408 225.56C332.699 220.099 335.344 212.845 335.344 203.8C335.344 194.755 332.784 187.672 327.664 182.552C322.544 177.432 316.315 174.872 308.976 174.872C301.637 174.872 295.408 177.432 290.288 182.552C285.168 187.672 282.608 194.755 282.608 203.8C282.608 212.845 285.168 220.099 290.288 225.56C295.579 230.851 301.808 233.496 308.976 233.496ZM312.048 329.752C323.995 329.752 333.552 327.107 340.72 321.816C347.888 316.696 351.472 310.893 351.472 304.408C351.472 298.605 349.253 294.595 344.816 292.376C340.549 290.157 334.405 289.048 326.384 289.048H304.88C302.491 289.048 299.845 288.877 296.944 288.536C294.213 288.195 291.483 287.683 288.752 287C284.315 290.243 281.072 293.656 279.024 297.24C276.976 300.824 275.952 304.408 275.952 307.992C275.952 314.648 279.109 319.939 285.424 323.864C291.909 327.789 300.784 329.752 312.048 329.752Z" fill="white"/>
</svg>
