<svg width="1545" height="591" viewBox="0 0 1545 591" fill="none" xmlns="http://www.w3.org/2000/svg">
<path d="M0.520003 584V7.19996H68.088L449.6 481H414.168V7.19996H496.568V584H429L47.488 110.2H82.92V584H0.520003ZM783.751 584V78.888H585.991V7.19996H1063.09V78.888H865.327V584H783.751Z" fill="#FFBA54"/>
<path d="M1320.93 590.592C1276.98 590.592 1234.96 584 1194.86 570.816C1154.76 557.083 1123.17 539.504 1100.1 518.08L1130.58 453.808C1152.56 473.035 1180.57 488.965 1214.63 501.6C1248.69 514.235 1284.12 520.552 1320.93 520.552C1354.44 520.552 1381.63 516.707 1402.5 509.016C1423.38 501.325 1438.76 490.888 1448.65 477.704C1458.54 463.971 1463.48 448.589 1463.48 431.56C1463.48 411.784 1456.89 395.853 1443.7 383.768C1431.07 371.683 1414.32 362.069 1393.44 354.928C1373.12 347.237 1350.59 340.645 1325.87 335.152C1301.15 329.659 1276.16 323.341 1250.89 316.2C1226.17 308.509 1203.37 298.896 1182.5 287.36C1162.17 275.824 1145.69 260.443 1133.06 241.216C1120.42 221.44 1114.1 196.171 1114.1 165.408C1114.1 135.744 1121.8 108.552 1137.18 83.832C1153.11 58.5626 1177.28 38.512 1209.69 23.68C1242.65 8.29866 1284.4 0.607996 1334.94 0.607996C1368.45 0.607996 1401.68 5.00266 1434.64 13.792C1467.6 22.5813 1496.17 35.216 1520.34 51.696L1493.14 117.616C1468.42 101.136 1442.33 89.3253 1414.86 82.184C1387.4 74.4933 1360.76 70.648 1334.94 70.648C1302.53 70.648 1275.88 74.768 1255.01 83.008C1234.13 91.248 1218.75 102.235 1208.86 115.968C1199.53 129.701 1194.86 145.083 1194.86 162.112C1194.86 182.437 1201.17 198.643 1213.81 210.728C1226.99 222.813 1243.75 232.427 1264.07 239.568C1284.95 246.709 1307.74 253.301 1332.46 259.344C1357.18 264.837 1381.9 271.155 1406.62 278.296C1431.89 285.437 1454.69 294.776 1475.02 306.312C1495.89 317.848 1512.65 333.229 1525.28 352.456C1537.92 371.683 1544.23 396.403 1544.23 426.616C1544.23 455.731 1536.27 482.923 1520.34 508.192C1504.41 532.912 1479.69 552.963 1446.18 568.344C1413.22 583.176 1371.47 590.592 1320.93 590.592Z" fill="#7943E6"/>
</svg>
