<svg width="400" height="91" viewBox="0 0 400 91" fill="none" xmlns="http://www.w3.org/2000/svg">
<path d="M19.6443 33.768L16.6683 43.368H35.5803L32.6043 33.768C31.4523 30.248 30.3643 26.76 29.3403 23.304C28.3163 19.784 27.2923 16.2 26.2683 12.552H25.8843C24.9243 16.2 23.9323 19.784 22.9083 23.304C21.8843 26.76 20.7963 30.248 19.6443 33.768ZM0.44425 69L21.7563 6.024H30.7803L52.0923 69H43.5483L37.5963 49.8H14.6523L8.60425 69H0.44425ZM60.247 69V22.344H66.775L67.447 30.792H67.735C69.335 27.848 71.287 25.512 73.591 23.784C75.895 22.056 78.359 21.192 80.983 21.192C82.839 21.192 84.503 21.512 85.975 22.152L84.439 29.064C83.671 28.808 82.967 28.616 82.327 28.488C81.687 28.36 80.887 28.296 79.927 28.296C77.943 28.296 75.863 29.096 73.687 30.696C71.575 32.296 69.719 35.08 68.119 39.048V69H60.247ZM108.335 90.504C102.639 90.504 97.9988 89.416 94.4148 87.24C90.8308 85.064 89.0388 81.96 89.0388 77.928C89.0388 75.944 89.6468 74.024 90.8628 72.168C92.0788 70.376 93.7428 68.776 95.8548 67.368V66.984C94.7028 66.28 93.7108 65.288 92.8788 64.008C92.1108 62.728 91.7268 61.192 91.7268 59.4C91.7268 57.416 92.2708 55.688 93.3588 54.216C94.4468 52.744 95.5988 51.592 96.8148 50.76V50.376C95.2788 49.096 93.8708 47.368 92.5908 45.192C91.3748 43.016 90.7668 40.552 90.7668 37.8C90.7668 34.408 91.5668 31.464 93.1668 28.968C94.7668 26.472 96.9108 24.552 99.5988 23.208C102.287 21.864 105.199 21.192 108.335 21.192C109.615 21.192 110.831 21.32 111.983 21.576C113.135 21.768 114.127 22.024 114.959 22.344H131.183V28.392H121.583C122.671 29.416 123.567 30.792 124.271 32.52C125.039 34.184 125.423 36.008 125.423 37.992C125.423 41.32 124.655 44.2 123.119 46.632C121.583 49.064 119.535 50.952 116.975 52.296C114.415 53.576 111.535 54.216 108.335 54.216C105.839 54.216 103.503 53.672 101.327 52.584C100.495 53.288 99.7908 54.088 99.2148 54.984C98.6388 55.816 98.3508 56.872 98.3508 58.152C98.3508 59.624 98.9268 60.84 100.079 61.8C101.295 62.76 103.471 63.24 106.607 63.24H115.631C121.071 63.24 125.135 64.136 127.823 65.928C130.575 67.656 131.951 70.472 131.951 74.376C131.951 77.256 130.991 79.912 129.071 82.344C127.151 84.776 124.431 86.728 120.911 88.2C117.391 89.736 113.199 90.504 108.335 90.504ZM108.335 48.936C111.023 48.936 113.327 47.944 115.247 45.96C117.231 43.912 118.223 41.192 118.223 37.8C118.223 34.408 117.263 31.752 115.343 29.832C113.423 27.912 111.087 26.952 108.335 26.952C105.583 26.952 103.247 27.912 101.327 29.832C99.4068 31.752 98.4468 34.408 98.4468 37.8C98.4468 41.192 99.4068 43.912 101.327 45.96C103.311 47.944 105.647 48.936 108.335 48.936ZM109.487 85.032C113.967 85.032 117.551 84.04 120.239 82.056C122.927 80.136 124.271 77.96 124.271 75.528C124.271 73.352 123.439 71.848 121.775 71.016C120.175 70.184 117.871 69.768 114.863 69.768H106.799C105.903 69.768 104.911 69.704 103.823 69.576C102.799 69.448 101.775 69.256 100.751 69C99.0868 70.216 97.8708 71.496 97.1028 72.84C96.3348 74.184 95.9508 75.528 95.9508 76.872C95.9508 79.368 97.1348 81.352 99.5028 82.824C101.935 84.296 105.263 85.032 109.487 85.032Z" fill="#E30A17"/>
<path d="M159.206 70.152C154.79 70.152 150.694 69.32 146.918 67.656C143.142 65.928 139.878 63.656 137.126 60.84L141.926 55.272C144.166 57.64 146.79 59.56 149.798 61.032C152.87 62.44 156.038 63.144 159.302 63.144C163.462 63.144 166.694 62.216 168.998 60.36C171.302 58.44 172.454 55.944 172.454 52.872C172.454 50.696 171.974 48.968 171.014 47.688C170.118 46.408 168.87 45.32 167.27 44.424C165.734 43.528 163.974 42.632 161.99 41.736L152.966 37.8C150.982 36.968 148.998 35.88 147.014 34.536C145.094 33.192 143.462 31.464 142.118 29.352C140.838 27.24 140.198 24.648 140.198 21.576C140.198 18.376 141.03 15.528 142.694 13.032C144.422 10.472 146.79 8.488 149.798 7.08C152.806 5.608 156.198 4.872 159.974 4.872C163.75 4.872 167.238 5.608 170.438 7.08C173.638 8.488 176.358 10.344 178.598 12.648L174.278 17.832C172.358 15.976 170.214 14.536 167.846 13.512C165.542 12.424 162.918 11.88 159.974 11.88C156.454 11.88 153.606 12.712 151.43 14.376C149.318 16.04 148.262 18.28 148.262 21.096C148.262 23.08 148.774 24.744 149.798 26.088C150.886 27.368 152.23 28.424 153.83 29.256C155.43 30.088 157.062 30.856 158.726 31.56L167.654 35.4C170.086 36.424 172.262 37.672 174.182 39.144C176.166 40.552 177.734 42.312 178.886 44.424C180.038 46.472 180.614 49.064 180.614 52.2C180.614 55.528 179.75 58.568 178.022 61.32C176.294 64.008 173.83 66.152 170.63 67.752C167.43 69.352 163.622 70.152 159.206 70.152ZM210.391 70.152C206.615 70.152 203.063 69.192 199.735 67.272C196.471 65.352 193.815 62.568 191.767 58.92C189.783 55.272 188.791 50.888 188.791 45.768C188.791 40.52 189.783 36.072 191.767 32.424C193.815 28.776 196.471 25.992 199.735 24.072C203.063 22.152 206.615 21.192 210.391 21.192C214.231 21.192 217.783 22.152 221.047 24.072C224.311 25.992 226.935 28.776 228.919 32.424C230.967 36.072 231.991 40.52 231.991 45.768C231.991 50.888 230.967 55.272 228.919 58.92C226.935 62.568 224.311 65.352 221.047 67.272C217.783 69.192 214.231 70.152 210.391 70.152ZM210.391 63.624C214.423 63.624 217.655 61.992 220.087 58.728C222.583 55.4 223.831 51.08 223.831 45.768C223.831 40.392 222.583 36.04 220.087 32.712C217.655 29.384 214.423 27.72 210.391 27.72C206.423 27.72 203.191 29.384 200.695 32.712C198.199 36.04 196.951 40.392 196.951 45.768C196.951 51.08 198.199 55.4 200.695 58.728C203.191 61.992 206.423 63.624 210.391 63.624ZM238.82 69V64.776L263.396 28.776H241.508V22.344H273.38V26.568L248.804 62.568H274.148V69H238.82ZM292.849 70.152C289.905 70.152 287.761 69.256 286.417 67.464C285.137 65.608 284.497 62.984 284.497 59.592V0.647999H292.369V60.168C292.369 61.384 292.593 62.28 293.041 62.856C293.489 63.368 294.001 63.624 294.577 63.624C294.833 63.624 295.057 63.624 295.249 63.624C295.505 63.56 295.857 63.496 296.305 63.432L297.361 69.384C296.849 69.64 296.241 69.832 295.537 69.96C294.833 70.088 293.937 70.152 292.849 70.152ZM322.598 70.152C317.67 70.152 314.054 68.616 311.75 65.544C309.446 62.408 308.294 57.864 308.294 51.912V22.344H316.262V50.856C316.262 55.208 316.934 58.376 318.278 60.36C319.686 62.344 321.926 63.336 324.998 63.336C327.43 63.336 329.574 62.728 331.43 61.512C333.35 60.232 335.398 58.216 337.574 55.464V22.344H345.446V69H338.918L338.246 61.704H337.958C335.782 64.264 333.478 66.312 331.046 67.848C328.614 69.384 325.798 70.152 322.598 70.152ZM361.185 69V0.647999H368.961V46.92H369.249L389.121 22.344H397.857L382.209 41.064L399.969 69H391.329L377.697 46.536L368.961 56.712V69H361.185Z" fill="#363636"/>
</svg>
